<svg xmlns="http://www.w3.org/2000/svg" viewBox="0 0 256 256" width="256" height="256">
  <defs>
    <linearGradient id="bg" x1="0%" y1="0%" x2="100%" y2="100%">
      <stop offset="0%" style="stop-color:#FF6B9D;stop-opacity:1" />
      <stop offset="100%" style="stop-color:#C44569;stop-opacity:1" />
    </linearGradient>
  </defs>

  <!-- Background circle -->
  <circle cx="128" cy="128" r="120" fill="url(#bg)" />

  <!-- Cake base - bottom tier -->
  <rect x="58" y="148" width="140" height="40" rx="8" ry="8" fill="#FFFFFF" opacity="0.95" />

  <!-- Cake middle tier -->
  <rect x="74" y="112" width="108" height="40" rx="8" ry="8" fill="#FFFFFF" opacity="0.85" />

  <!-- Frosting drips on bottom tier -->
  <path d="M58 148 Q68 158 78 148 Q88 158 98 148 Q108 158 118 148 Q128 158 138 148 Q148 158 158 148 Q168 158 178 148 Q188 158 198 148" fill="none" stroke="#FFD93D" stroke-width="6" stroke-linecap="round" />

  <!-- Frosting drips on middle tier -->
  <path d="M74 112 Q84 122 94 112 Q104 122 114 112 Q124 122 134 112 Q144 122 154 112 Q164 122 174 112 Q182 118 182 112" fill="none" stroke="#FFD93D" stroke-width="5" stroke-linecap="round" />

  <!-- Candle left -->
  <rect x="100" y="78" width="8" height="34" rx="3" ry="3" fill="#6C5CE7" />
  <!-- Candle center -->
  <rect x="124" y="70" width="8" height="42" rx="3" ry="3" fill="#00B894" />
  <!-- Candle right -->
  <rect x="148" y="78" width="8" height="34" rx="3" ry="3" fill="#FDCB6E" />

  <!-- Flames -->
  <ellipse cx="104" cy="72" rx="5" ry="8" fill="#FFD93D" />
  <ellipse cx="104" cy="70" rx="3" ry="5" fill="#FFF3B0" />

  <ellipse cx="128" cy="64" rx="5" ry="8" fill="#FFD93D" />
  <ellipse cx="128" cy="62" rx="3" ry="5" fill="#FFF3B0" />

  <ellipse cx="152" cy="72" rx="5" ry="8" fill="#FFD93D" />
  <ellipse cx="152" cy="70" rx="3" ry="5" fill="#FFF3B0" />

  <!-- Small decorative dots on cake -->
  <circle cx="88" cy="165" r="3" fill="#6C5CE7" opacity="0.6" />
  <circle cx="128" cy="165" r="3" fill="#00B894" opacity="0.6" />
  <circle cx="168" cy="165" r="3" fill="#FDCB6E" opacity="0.6" />
  <circle cx="108" cy="165" r="3" fill="#FF6B9D" opacity="0.6" />
  <circle cx="148" cy="165" r="3" fill="#FF6B9D" opacity="0.6" />

  <!-- Calendar corner badge -->
  <rect x="176" y="178" width="48" height="44" rx="8" ry="8" fill="#FFFFFF" />
  <rect x="176" y="178" width="48" height="16" rx="8" ry="0" fill="#E17055" />
  <rect x="176" y="186" width="48" height="8" fill="#E17055" />
  <text x="200" y="213" font-family="Arial, sans-serif" font-weight="bold" font-size="18" fill="#2D3436" text-anchor="middle">31</text>
</svg>
